<?xml version="1.0" encoding="UTF-8"?>
<!DOCTYPE svg PUBLIC "-//W3C//DTD SVG 1.1//EN" "http://www.w3.org/Graphics/SVG/1.1/DTD/svg11.dtd">
<svg xmlns="http://www.w3.org/2000/svg" version="1.1" width="949px" height="92px" style="shape-rendering:geometricPrecision; text-rendering:geometricPrecision; image-rendering:optimizeQuality; fill-rule:evenodd; clip-rule:evenodd" xmlns:xlink="http://www.w3.org/1999/xlink">
<g><path style="opacity:1" fill="#e7012a" d="M 57.5,10.5 C 63.1667,10.5 68.8333,10.5 74.5,10.5C 76.6353,12.369 79.3019,13.0356 82.5,12.5C 82.5,30.8333 82.5,49.1667 82.5,67.5C 81.0689,68.0819 79.7356,68.9152 78.5,70C 62.8333,70.6667 47.1667,70.6667 31.5,70C 30.1667,69.3333 29.1667,68.3333 28.5,67C 29.8672,64.6985 30.5339,62.1985 30.5,59.5C 34.5,58.8333 34.5,58.1667 30.5,57.5C 30.5,54.8333 30.5,52.1667 30.5,49.5C 31.5,49.5 32.5,49.5 33.5,49.5C 33.3367,47.1432 33.5034,44.8098 34,42.5C 35.2692,43.9047 35.7692,45.5714 35.5,47.5C 36.8333,47.5 38.1667,47.5 39.5,47.5C 39.1253,44.6035 39.6253,41.9368 41,39.5C 43.2057,43.5307 43.7057,43.3641 42.5,39C 44.2612,34.4214 47.5945,32.588 52.5,33.5C 51.1667,35.8333 49.8333,38.1667 48.5,40.5C 45.6278,42.3365 44.2945,45.0032 44.5,48.5C 43.4533,51.5963 42.12,54.5963 40.5,57.5C 42.1673,58.6664 43.834,58.6664 45.5,57.5C 47.7428,58.8584 49.4095,58.1917 50.5,55.5C 53.9308,53.6523 55.5975,50.6523 55.5,46.5C 57.1443,41.0431 59.4776,35.8764 62.5,31C 59.6673,30.5538 57.0006,31.0538 54.5,32.5C 52.8211,32.1077 51.1545,31.6077 49.5,31C 50.6091,29.187 49.9424,28.3537 47.5,28.5C 47.5,26.1667 47.5,23.8333 47.5,21.5C 53.4591,22.1381 54.4591,20.6381 50.5,17C 44.5194,15.3209 38.5194,15.1543 32.5,16.5C 31.503,23.4684 31.1697,30.4684 31.5,37.5C 33.4815,36.6525 35.4815,36.1525 37.5,36C 38.1383,37.7067 38.1383,39.54 37.5,41.5C 34.9208,41.0833 32.7542,41.75 31,43.5C 29.6706,34.2801 29.504,25.1134 30.5,16C 28.8876,15.2797 27.3876,15.4464 26,16.5C 26.3106,31.8259 26.3106,47.1592 26,62.5C 24.3831,63.5358 24.2164,64.7025 25.5,66C 24.4642,67.6169 23.2975,67.7836 22,66.5C 22.3069,61.5628 22.8069,56.5628 23.5,51.5C 22.2314,39.8037 22.2314,28.1371 23.5,16.5C 22.8333,15.8333 22.1667,15.1667 21.5,14.5C 30.6577,13.8333 39.6577,13.1666 48.5,12.5C 52.0122,13.0545 55.0122,12.3878 57.5,10.5 Z M 55.5,46.5 C 53.5954,49.3037 51.9287,52.3037 50.5,55.5C 48.8333,56.1667 47.1667,56.8333 45.5,57.5C 43.834,58.6664 42.1673,58.6664 40.5,57.5C 42.12,54.5963 43.4533,51.5963 44.5,48.5C 46.341,46.1515 47.6743,43.4848 48.5,40.5C 49.8333,38.1667 51.1667,35.8333 52.5,33.5C 53.4916,33.6716 54.1583,33.3382 54.5,32.5C 57.0006,31.0538 59.6673,30.5538 62.5,31C 59.4776,35.8764 57.1443,41.0431 55.5,46.5 Z"/></g>
<g><path style="opacity:1" fill="#c70b28" d="M 74.5,10.5 C 74.8333,10.5 75.1667,10.5 75.5,10.5C 77.9479,11.4731 80.6146,11.8064 83.5,11.5C 83.5,32.5 83.5,53.5 83.5,74.5C 61.1667,75.8333 38.8333,75.8333 16.5,74.5C 38.5,74.5 60.5,74.5 82.5,74.5C 82.5,72.1667 82.5,69.8333 82.5,67.5C 82.5,49.1667 82.5,30.8333 82.5,12.5C 79.3019,13.0356 76.6353,12.369 74.5,10.5 Z"/></g>
<g><path style="opacity:1" fill="#e80028" d="M 48.5,12.5 C 39.6577,13.1666 30.6577,13.8333 21.5,14.5C 22.1667,15.1667 22.8333,15.8333 23.5,16.5C 22.2314,28.1371 22.2314,39.8037 23.5,51.5C 22.8069,56.5628 22.3069,61.5628 22,66.5C 23.2975,67.7836 24.4642,67.6169 25.5,66C 24.2164,64.7025 24.3831,63.5358 26,62.5C 26.3106,47.1592 26.3106,31.8259 26,16.5C 27.3876,15.4464 28.8876,15.2797 30.5,16C 29.504,25.1134 29.6706,34.2801 31,43.5C 32.7542,41.75 34.9208,41.0833 37.5,41.5C 38.1383,39.54 38.1383,37.7067 37.5,36C 35.4815,36.1525 33.4815,36.6525 31.5,37.5C 31.1697,30.4684 31.503,23.4684 32.5,16.5C 38.5194,15.1543 44.5194,15.3209 50.5,17C 54.4591,20.6381 53.4591,22.1381 47.5,21.5C 47.5,23.8333 47.5,26.1667 47.5,28.5C 49.9424,28.3537 50.6091,29.187 49.5,31C 51.1545,31.6077 52.8211,32.1077 54.5,32.5C 54.1583,33.3382 53.4916,33.6716 52.5,33.5C 47.5945,32.588 44.2612,34.4214 42.5,39C 43.7057,43.3641 43.2057,43.5307 41,39.5C 39.6253,41.9368 39.1253,44.6035 39.5,47.5C 38.1667,47.5 36.8333,47.5 35.5,47.5C 35.7692,45.5714 35.2692,43.9047 34,42.5C 33.5034,44.8098 33.3367,47.1432 33.5,49.5C 32.5,49.5 31.5,49.5 30.5,49.5C 30.5,52.1667 30.5,54.8333 30.5,57.5C 34.5,58.1667 34.5,58.8333 30.5,59.5C 30.5339,62.1985 29.8672,64.6985 28.5,67C 29.1667,68.3333 30.1667,69.3333 31.5,70C 47.1667,70.6667 62.8333,70.6667 78.5,70C 79.7356,68.9152 81.0689,68.0819 82.5,67.5C 82.5,69.8333 82.5,72.1667 82.5,74.5C 60.5,74.5 38.5,74.5 16.5,74.5C 16.5,74.1667 16.5,73.8333 16.5,73.5C 17.1841,54.1401 17.8507,34.6401 18.5,15C 18.3552,14.228 18.0219,13.5613 17.5,13C 27.828,12.5002 38.1613,12.3335 48.5,12.5 Z"/></g>
<g><path style="opacity:0.482" fill="#010101" d="M 295.5,29.5 C 303.03,29.8402 303.197,31.5069 296,34.5C 295.167,34.1667 294.333,33.8333 293.5,33.5C 294.63,32.3777 295.297,31.0443 295.5,29.5 Z"/></g>
<g><path style="opacity:0.086" fill="#911024" d="M 75.5,10.5 C 78.5,10.5 81.5,10.5 84.5,10.5C 84.8306,32.0065 84.4973,53.3399 83.5,74.5C 83.5,53.5 83.5,32.5 83.5,11.5C 80.6146,11.8064 77.9479,11.4731 75.5,10.5 Z"/></g>
<g><path style="opacity:0.911" fill="#d5152f" d="M 57.5,10.5 C 55.0122,12.3878 52.0122,13.0545 48.5,12.5C 38.1613,12.3335 27.828,12.5002 17.5,13C 18.0219,13.5613 18.3552,14.228 18.5,15C 17.8507,34.6401 17.1841,54.1401 16.5,73.5C 16.5,52.5 16.5,31.5 16.5,10.5C 30.1667,10.5 43.8333,10.5 57.5,10.5 Z"/></g>
<g><path style="opacity:0.808" fill="#020202" d="M 94.5,35.5 C 100.377,34.8617 103.877,37.5284 105,43.5C 106.726,38.2502 110.226,35.5836 115.5,35.5C 115.5,42.1667 115.5,48.8333 115.5,55.5C 113.833,55.5 112.167,55.5 110.5,55.5C 110.665,51.8183 110.499,48.1516 110,44.5C 106.194,51.2268 102.861,50.8934 100,43.5C 99.5012,47.4862 99.3345,51.4862 99.5,55.5C 97.8333,55.5 96.1667,55.5 94.5,55.5C 94.5,48.8333 94.5,42.1667 94.5,35.5 Z"/></g>
<g><path style="opacity:0.735" fill="#020202" d="M 123.5,35.5 C 125.833,35.5 128.167,35.5 130.5,35.5C 131.941,42.3238 134.275,48.8238 137.5,55C 135.5,55.6667 133.5,55.6667 131.5,55C 130.663,53.9887 130.33,52.8221 130.5,51.5C 128.167,51.5 125.833,51.5 123.5,51.5C 123.67,52.8221 123.337,53.9887 122.5,55C 120.421,55.8077 118.421,55.641 116.5,54.5C 119.431,48.3739 121.764,42.0405 123.5,35.5 Z M 126.5,42.5 C 127.249,43.531 127.915,44.6976 128.5,46C 127.365,46.7494 126.365,46.5827 125.5,45.5C 126.127,44.5832 126.461,43.5832 126.5,42.5 Z"/></g>
<g><path style="opacity:0.73" fill="#020101" d="M 133.5,35.5 C 144.311,35.9364 154.977,36.1031 165.5,36C 169.148,39.1033 169.482,42.6033 166.5,46.5C 168.371,49.2341 169.371,52.2341 169.5,55.5C 167.5,55.5 165.5,55.5 163.5,55.5C 163.892,50.8588 161.892,48.5255 157.5,48.5C 157.5,50.8333 157.5,53.1667 157.5,55.5C 155.5,55.5 153.5,55.5 151.5,55.5C 151.5,50.1667 151.5,44.8333 151.5,39.5C 149.5,39.5 147.5,39.5 145.5,39.5C 145.5,44.8333 145.5,50.1667 145.5,55.5C 143.5,55.5 141.5,55.5 139.5,55.5C 139.5,50.1667 139.5,44.8333 139.5,39.5C 137.5,39.5 135.5,39.5 133.5,39.5C 133.5,38.1667 133.5,36.8333 133.5,35.5 Z M 157.5,39.5 C 161.676,38.8307 163.009,40.3307 161.5,44C 160.207,44.49 158.873,44.6567 157.5,44.5C 157.5,42.8333 157.5,41.1667 157.5,39.5 Z"/></g>
<g><path style="opacity:0.661" fill="#020101" d="M 170.5,35.5 C 172.5,35.5 174.5,35.5 176.5,35.5C 176.5,42.1667 176.5,48.8333 176.5,55.5C 174.5,55.5 172.5,55.5 170.5,55.5C 170.5,48.8333 170.5,42.1667 170.5,35.5 Z"/></g>
<g><path style="opacity:0.807" fill="#020202" d="M 179.5,35.5 C 184.5,35.5 189.5,35.5 194.5,35.5C 192.647,41.221 189.647,46.3877 185.5,51C 188.817,51.4983 192.15,51.665 195.5,51.5C 195.5,52.8333 195.5,54.1667 195.5,55.5C 189.833,55.5 184.167,55.5 178.5,55.5C 179.502,49.2952 182.502,44.1285 187.5,40C 184.854,39.5026 182.187,39.3359 179.5,39.5C 179.5,38.1667 179.5,36.8333 179.5,35.5 Z"/></g>
<g><path style="opacity:0.737" fill="#020101" d="M 202.5,35.5 C 207.959,35.1033 213.292,35.6033 218.5,37C 220.888,39.3059 221.888,42.1392 221.5,45.5C 221.888,48.8608 220.888,51.6941 218.5,54C 213.292,55.3967 207.959,55.8967 202.5,55.5C 202.5,48.8333 202.5,42.1667 202.5,35.5 Z M 208.5,39.5 C 215.849,40.0363 217.849,43.5363 214.5,50C 212.564,50.813 210.564,51.313 208.5,51.5C 208.5,47.5 208.5,43.5 208.5,39.5 Z"/></g>
<g><path style="opacity:0.871" fill="#020202" d="M 224.5,35.5 C 229.167,35.5 233.833,35.5 238.5,35.5C 238.5,36.8333 238.5,38.1667 238.5,39.5C 235.5,39.5 232.5,39.5 229.5,39.5C 229.5,40.8333 229.5,42.1667 229.5,43.5C 232.167,43.5 234.833,43.5 237.5,43.5C 237.5,44.8333 237.5,46.1667 237.5,47.5C 234.833,47.5 232.167,47.5 229.5,47.5C 229.5,48.8333 229.5,50.1667 229.5,51.5C 232.5,51.5 235.5,51.5 238.5,51.5C 238.5,52.8333 238.5,54.1667 238.5,55.5C 233.833,55.5 229.167,55.5 224.5,55.5C 224.5,48.8333 224.5,42.1667 224.5,35.5 Z"/></g>
<g><path style="opacity:0.723" fill="#020202" d="M 252.5,35.5 C 254.604,35.2011 256.604,35.5344 258.5,36.5C 260.833,42.5 263.167,48.5 265.5,54.5C 264.5,54.8333 263.5,55.1667 262.5,55.5C 260.167,54.1667 257.833,52.8333 255.5,51.5C 252.488,51.1787 251.155,52.512 251.5,55.5C 249.5,55.5 247.5,55.5 245.5,55.5C 247.271,48.6265 249.605,41.9598 252.5,35.5 Z M 254.5,43.5 C 256.332,44.1405 256.665,45.1405 255.5,46.5C 254.614,45.675 254.281,44.675 254.5,43.5 Z"/></g>
<g><path style="opacity:0.728" fill="#010101" d="M 266.5,35.5 C 268.527,35.3379 270.527,35.5045 272.5,36C 274.543,39.2534 276.71,42.4201 279,45.5C 279.498,42.1832 279.665,38.8499 279.5,35.5C 281.467,35.2606 283.301,35.5939 285,36.5C 285.667,42.1667 285.667,47.8333 285,53.5C 283.582,55.3632 281.749,55.8632 279.5,55C 276.612,51.7784 274.112,48.2784 272,44.5C 271.501,48.1516 271.335,51.8183 271.5,55.5C 269.833,55.5 268.167,55.5 266.5,55.5C 266.5,48.8333 266.5,42.1667 266.5,35.5 Z"/></g>
<g><path style="opacity:0.706" fill="#020202" d="M 292.5,35.5 C 294.833,35.5 297.167,35.5 299.5,35.5C 301.652,41.8118 303.819,48.1451 306,54.5C 306.5,48.1754 306.666,41.8421 306.5,35.5C 308.5,35.5 310.5,35.5 312.5,35.5C 312.5,40.8333 312.5,46.1667 312.5,51.5C 315.5,51.5 318.5,51.5 321.5,51.5C 321.5,52.8333 321.5,54.1667 321.5,55.5C 314.468,55.8303 307.468,55.497 300.5,54.5C 298.927,51.807 296.593,50.9737 293.5,52C 292.663,53.0113 292.33,54.1779 292.5,55.5C 290.143,55.6633 287.81,55.4966 285.5,55C 288.332,48.6716 290.665,42.1716 292.5,35.5 Z M 295.5,42.5 C 296.249,43.531 296.915,44.6976 297.5,46C 296.365,46.7494 295.365,46.5827 294.5,45.5C 295.127,44.5832 295.461,43.5832 295.5,42.5 Z"/></g>
<g><path style="opacity:0.768" fill="#030203" d="M 322.5,35.5 C 324.5,35.5 326.5,35.5 328.5,35.5C 328.5,42.1667 328.5,48.8333 328.5,55.5C 326.5,55.5 324.5,55.5 322.5,55.5C 322.5,48.8333 322.5,42.1667 322.5,35.5 Z"/></g>
<g><path style="opacity:0.719" fill="#020202" d="M 341.5,42.5 C 348.11,45.3248 349.11,49.4915 344.5,55C 340.833,55.6667 337.167,55.6667 333.5,55C 331.081,53.4912 330.081,51.3245 330.5,48.5C 332.199,48.3398 333.866,48.5065 335.5,49C 337.443,51.9491 339.443,52.1158 341.5,49.5C 337.714,47.964 334.214,45.964 331,43.5C 329.959,40.3637 330.793,37.8637 333.5,36C 337.9,35.0223 342.067,35.5223 346,37.5C 347.009,39.0249 347.509,40.6916 347.5,42.5C 345.5,42.5 343.5,42.5 341.5,42.5 Z M 341.5,42.5 C 339.516,42.6168 337.85,41.9501 336.5,40.5C 339.17,38.9103 340.837,39.577 341.5,42.5 Z"/></g>
<g><path style="opacity:0.648" fill="#020101" d="M 349.5,35.5 C 351.5,35.5 353.5,35.5 355.5,35.5C 355.5,42.1667 355.5,48.8333 355.5,55.5C 353.5,55.5 351.5,55.5 349.5,55.5C 349.5,48.8333 349.5,42.1667 349.5,35.5 Z"/></g>
<g><path style="opacity:0.712" fill="#020102" d="M 368.5,42.5 C 375.11,45.3248 376.11,49.4915 371.5,55C 367.833,55.6667 364.167,55.6667 360.5,55C 358.081,53.4912 357.081,51.3245 357.5,48.5C 359.199,48.3398 360.866,48.5065 362.5,49C 364.463,51.8757 366.796,52.2091 369.5,50C 365.982,48.1636 362.482,46.3303 359,44.5C 356.955,41.281 357.455,38.4477 360.5,36C 364.9,35.0223 369.067,35.5223 373,37.5C 374.009,39.0249 374.509,40.6916 374.5,42.5C 372.5,42.5 370.5,42.5 368.5,42.5 Z M 368.5,42.5 C 366.516,42.6168 364.85,41.9501 363.5,40.5C 366.17,38.9103 367.837,39.577 368.5,42.5 Z"/></g>
<g><path style="opacity:0.709" fill="#010101" d="M 382.5,35.5 C 384.924,35.1924 387.257,35.5258 389.5,36.5C 391,38.8333 392.5,41.1667 394,43.5C 395.123,40.7513 396.623,38.2513 398.5,36C 400.473,35.5045 402.473,35.3379 404.5,35.5C 404.5,42.1667 404.5,48.8333 404.5,55.5C 402.5,55.5 400.5,55.5 398.5,55.5C 398.665,52.1501 398.498,48.8168 398,45.5C 395.075,50.721 392.075,50.721 389,45.5C 388.502,48.8168 388.335,52.1501 388.5,55.5C 386.5,55.5 384.5,55.5 382.5,55.5C 382.5,48.8333 382.5,42.1667 382.5,35.5 Z"/></g>
<g><path style="opacity:0.729" fill="#010101" d="M 412.5,35.5 C 424.66,33.4928 429.494,38.4928 427,50.5C 426.535,51.9308 425.701,53.0975 424.5,54C 410.735,58.2266 405.235,53.3933 408,39.5C 409.397,37.9297 410.897,36.5964 412.5,35.5 Z M 416.5,39.5 C 420.348,39.6814 422.015,41.6814 421.5,45.5C 420.548,51.7242 417.715,52.7242 413,48.5C 411.665,44.3919 412.832,41.3919 416.5,39.5 Z"/></g>
<g><path style="opacity:0.732" fill="#010101" d="M 429.5,35.5 C 434.179,35.3342 438.845,35.5008 443.5,36C 450.592,41.2309 451.259,47.2309 445.5,54C 440.292,55.3967 434.959,55.8967 429.5,55.5C 429.5,48.8333 429.5,42.1667 429.5,35.5 Z M 435.5,39.5 C 443.365,39.8381 445.365,43.3381 441.5,50C 439.655,51.128 437.655,51.628 435.5,51.5C 435.5,47.5 435.5,43.5 435.5,39.5 Z"/></g>
<g><path style="opacity:0.743" fill="#020202" d="M 455.5,35.5 C 457.792,35.2436 459.959,35.5769 462,36.5C 464.474,42.7566 466.641,49.0899 468.5,55.5C 464.759,56.4015 462.759,55.0681 462.5,51.5C 460.076,51.1924 457.743,51.5258 455.5,52.5C 453.869,55.3751 451.536,56.0417 448.5,54.5C 451.125,48.2544 453.458,41.9211 455.5,35.5 Z M 457.5,43.5 C 460.962,45.1927 460.962,46.1927 457.5,46.5C 457.5,45.5 457.5,44.5 457.5,43.5 Z"/></g>
<g><path style="opacity:0.809" fill="#020202" d="M 469.5,35.5 C 471.167,35.5 472.833,35.5 474.5,35.5C 474.5,40.8333 474.5,46.1667 474.5,51.5C 477.5,51.5 480.5,51.5 483.5,51.5C 483.5,52.8333 483.5,54.1667 483.5,55.5C 478.833,55.5 474.167,55.5 469.5,55.5C 469.5,48.8333 469.5,42.1667 469.5,35.5 Z"/></g>
<g><path style="opacity:0.786" fill="#020202" d="M 491.5,35.5 C 496.628,35.1115 501.628,35.6115 506.5,37C 511.833,42.6667 511.833,48.3333 506.5,54C 501.628,55.3885 496.628,55.8885 491.5,55.5C 491.5,48.8333 491.5,42.1667 491.5,35.5 Z M 496.5,39.5 C 504.365,39.8381 506.365,43.3381 502.5,50C 500.655,51.128 498.655,51.628 496.5,51.5C 496.5,47.5 496.5,43.5 496.5,39.5 Z"/></g>
<g><path style="opacity:0.733" fill="#020202" d="M 512.5,35.5 C 517.833,35.5 523.167,35.5 528.5,35.5C 528.5,36.8333 528.5,38.1667 528.5,39.5C 525.167,39.5 521.833,39.5 518.5,39.5C 518.5,40.8333 518.5,42.1667 518.5,43.5C 521.5,43.5 524.5,43.5 527.5,43.5C 527.5,44.8333 527.5,46.1667 527.5,47.5C 524.5,47.5 521.5,47.5 518.5,47.5C 518.5,48.8333 518.5,50.1667 518.5,51.5C 521.833,51.5 525.167,51.5 528.5,51.5C 528.5,52.8333 528.5,54.1667 528.5,55.5C 523.167,55.5 517.833,55.5 512.5,55.5C 512.5,48.8333 512.5,42.1667 512.5,35.5 Z"/></g>
<g><path style="opacity:0.858" fill="#030303" d="M 536.5,35.5 C 541.167,35.5 545.833,35.5 550.5,35.5C 550.5,36.8333 550.5,38.1667 550.5,39.5C 547.5,39.5 544.5,39.5 541.5,39.5C 541.5,40.8333 541.5,42.1667 541.5,43.5C 544.5,43.5 547.5,43.5 550.5,43.5C 550.5,44.8333 550.5,46.1667 550.5,47.5C 547.5,47.5 544.5,47.5 541.5,47.5C 541.5,50.1667 541.5,52.8333 541.5,55.5C 539.833,55.5 538.167,55.5 536.5,55.5C 536.5,48.8333 536.5,42.1667 536.5,35.5 Z"/></g>
<g><path style="opacity:0.731" fill="#020202" d="M 556.5,35.5 C 558.604,35.2011 560.604,35.5344 562.5,36.5C 565.434,42.638 567.767,48.9713 569.5,55.5C 567.5,55.5 565.5,55.5 563.5,55.5C 563.845,52.512 562.512,51.1787 559.5,51.5C 557.448,51.6162 556.115,52.6162 555.5,54.5C 553.604,55.4656 551.604,55.7989 549.5,55.5C 551.435,48.6945 553.769,42.0278 556.5,35.5 Z M 559.5,43.5 C 560.776,44.3864 560.776,45.3864 559.5,46.5C 558.438,45.5754 558.438,44.5754 559.5,43.5 Z"/></g>
<g><path style="opacity:0.703" fill="#020202" d="M 570.5,35.5 C 572.5,35.5 574.5,35.5 576.5,35.5C 576.5,40.8333 576.5,46.1667 576.5,51.5C 579.167,51.5 581.833,51.5 584.5,51.5C 584.5,52.8333 584.5,54.1667 584.5,55.5C 579.833,55.5 575.167,55.5 570.5,55.5C 570.5,48.8333 570.5,42.1667 570.5,35.5 Z"/></g>
<g><path style="opacity:0.826" fill="#020202" d="M 600.5,51.5 C 600.5,52.8333 600.5,54.1667 600.5,55.5C 595.833,55.5 591.167,55.5 586.5,55.5C 586.5,48.8333 586.5,42.1667 586.5,35.5C 588.167,35.5 589.833,35.5 591.5,35.5C 591.5,40.8333 591.5,46.1667 591.5,51.5C 594.5,51.5 597.5,51.5 600.5,51.5 Z"/></g>
<g><path style="opacity:0.751" fill="#020202" d="M 600.5,51.5 C 597.834,38.9983 602.834,33.8317 615.5,36C 623.5,42.3333 623.5,48.6667 615.5,55C 609.772,56.4407 604.772,55.2741 600.5,51.5 Z M 608.5,39.5 C 614.771,40.374 616.604,43.7073 614,49.5C 609.541,52.6758 606.707,51.5091 605.5,46C 606.03,43.5568 607.03,41.3901 608.5,39.5 Z"/></g>
<g><path style="opacity:0.724" fill="#020202" d="M 633.5,42.5 C 638.183,44.1942 640.016,47.5276 639,52.5C 636.694,54.8881 633.861,55.8881 630.5,55.5C 625.927,55.9364 622.927,53.9364 621.5,49.5C 622.5,49.1667 623.5,48.8333 624.5,48.5C 626.677,49.2456 628.677,50.2456 630.5,51.5C 632,51.5472 633,50.8805 633.5,49.5C 630.038,48.1305 626.705,46.4639 623.5,44.5C 621.813,41.0973 622.48,38.264 625.5,36C 628.833,35.3333 632.167,35.3333 635.5,36C 637.919,37.5088 638.919,39.6755 638.5,42.5C 636.833,42.5 635.167,42.5 633.5,42.5 Z M 633.5,42.5 C 631.345,42.628 629.345,42.128 627.5,41C 630.344,38.7101 632.344,39.2101 633.5,42.5 Z"/></g>
<g><path style="opacity:0.7" fill="#010101" d="M 645.5,35.5 C 647.527,35.3379 649.527,35.5045 651.5,36C 652.542,37.918 653.708,39.7513 655,41.5C 656.206,36.3629 659.373,34.5295 664.5,36C 662.46,39.9144 660.293,43.7478 658,47.5C 657.503,50.146 657.336,52.8127 657.5,55.5C 655.5,55.5 653.5,55.5 651.5,55.5C 651.665,52.4816 651.498,49.4816 651,46.5C 648.607,43.0478 646.774,39.3811 645.5,35.5 Z"/></g>
<g><path style="opacity:0.855" fill="#030202" d="M 671.5,35.5 C 676.5,35.5 681.5,35.5 686.5,35.5C 686.5,36.8333 686.5,38.1667 686.5,39.5C 683.167,39.5 679.833,39.5 676.5,39.5C 676.5,40.8333 676.5,42.1667 676.5,43.5C 679.5,43.5 682.5,43.5 685.5,43.5C 685.5,44.8333 685.5,46.1667 685.5,47.5C 682.5,47.5 679.5,47.5 676.5,47.5C 676.5,48.8333 676.5,50.1667 676.5,51.5C 679.833,51.5 683.167,51.5 686.5,51.5C 686.5,52.8333 686.5,54.1667 686.5,55.5C 681.5,55.5 676.5,55.5 671.5,55.5C 671.5,48.8333 671.5,42.1667 671.5,35.5 Z"/></g>
<g><path style="opacity:0.757" fill="#020202" d="M 688.5,35.5 C 693.5,35.5 698.5,35.5 703.5,35.5C 703.5,36.8333 703.5,38.1667 703.5,39.5C 700.5,39.5 697.5,39.5 694.5,39.5C 694.5,40.8333 694.5,42.1667 694.5,43.5C 697.167,43.5 699.833,43.5 702.5,43.5C 702.5,44.8333 702.5,46.1667 702.5,47.5C 699.833,47.5 697.167,47.5 694.5,47.5C 694.5,50.1667 694.5,52.8333 694.5,55.5C 692.5,55.5 690.5,55.5 688.5,55.5C 688.5,48.8333 688.5,42.1667 688.5,35.5 Z"/></g>
<g><path style="opacity:0.748" fill="#020202" d="M 704.5,35.5 C 709.833,35.5 715.167,35.5 720.5,35.5C 720.5,36.8333 720.5,38.1667 720.5,39.5C 717.167,39.5 713.833,39.5 710.5,39.5C 710.5,40.8333 710.5,42.1667 710.5,43.5C 713.5,43.5 716.5,43.5 719.5,43.5C 719.5,44.8333 719.5,46.1667 719.5,47.5C 716.5,47.5 713.5,47.5 710.5,47.5C 710.5,48.8333 710.5,50.1667 710.5,51.5C 713.833,51.5 717.167,51.5 720.5,51.5C 720.5,52.8333 720.5,54.1667 720.5,55.5C 715.167,55.5 709.833,55.5 704.5,55.5C 704.5,48.8333 704.5,42.1667 704.5,35.5 Z"/></g>
<g><path style="opacity:0.761" fill="#020202" d="M 757.5,39.5 C 755.5,39.5 753.5,39.5 751.5,39.5C 751.5,44.8333 751.5,50.1667 751.5,55.5C 749.833,55.5 748.167,55.5 746.5,55.5C 746.5,50.1667 746.5,44.8333 746.5,39.5C 744.473,39.3379 742.473,39.5045 740.5,40C 741.337,41.0113 741.67,42.1779 741.5,43.5C 739.396,43.7989 737.396,43.4656 735.5,42.5C 733.357,39.1698 730.857,38.8365 728,41.5C 727.223,44.4294 727.39,47.2628 728.5,50C 729.5,50.5 730.5,51 731.5,51.5C 733.846,50.0662 736.179,48.7328 738.5,47.5C 739.5,47.8333 740.5,48.1667 741.5,48.5C 741.139,51.6919 739.472,53.8586 736.5,55C 722.857,56.8616 718.357,51.3616 723,38.5C 728.667,34.5 734.333,34.5 740,38.5C 740.483,37.552 740.649,36.552 740.5,35.5C 746.167,35.5 751.833,35.5 757.5,35.5C 757.5,36.8333 757.5,38.1667 757.5,39.5 Z"/></g>
<g><path style="opacity:0.723" fill="#020202" d="M 757.5,39.5 C 763.05,34.7686 769.05,34.2686 775.5,38C 780.848,51.5896 776.181,57.2563 761.5,55C 756.709,50.7725 755.375,45.6058 757.5,39.5 Z M 766.5,39.5 C 771.368,41.2178 772.702,44.5511 770.5,49.5C 767.805,51.9429 765.305,51.6095 763,48.5C 761.665,44.3919 762.832,41.3919 766.5,39.5 Z"/></g>
<g><path style="opacity:0.684" fill="#020202" d="M 782.5,35.5 C 785.85,35.335 789.183,35.5017 792.5,36C 794.919,37.5088 795.919,39.6755 795.5,42.5C 793.801,42.6602 792.134,42.4935 790.5,42C 789.228,39.7391 787.562,39.2391 785.5,40.5C 788.171,42.4591 791.171,43.9591 794.5,45C 797.476,49.0937 796.809,52.427 792.5,55C 788.1,55.9777 783.933,55.4777 780,53.5C 778.991,51.9751 778.491,50.3084 778.5,48.5C 781.984,48.3276 784.984,49.3276 787.5,51.5C 789,51.5472 790,50.8805 790.5,49.5C 786.927,48.0588 783.427,46.3921 780,44.5C 777.915,40.6749 778.748,37.6749 782.5,35.5 Z"/></g>
<g><path style="opacity:0.697" fill="#020202" d="M 806.5,35.5 C 808.199,35.3398 809.866,35.5065 811.5,36C 806.32,44.1809 806.32,52.3476 811.5,60.5C 809.833,61.8333 808.167,61.8333 806.5,60.5C 802.505,52.1355 802.505,43.8021 806.5,35.5 Z"/></g>
<g><path style="opacity:0.735" fill="#020202" d="M 817.5,35.5 C 819.833,35.5 822.167,35.5 824.5,35.5C 826.126,42.2524 828.459,48.7524 831.5,55C 829.5,55.6667 827.5,55.6667 825.5,55C 824.663,53.9887 824.33,52.8221 824.5,51.5C 822.076,51.1924 819.743,51.5258 817.5,52.5C 815.927,55.193 813.593,56.0263 810.5,55C 813.328,48.6834 815.661,42.1834 817.5,35.5 Z M 820.5,42.5 C 823.459,45.2714 823.126,46.2714 819.5,45.5C 820.127,44.5832 820.461,43.5832 820.5,42.5 Z"/></g>
<g><path style="opacity:0.73" fill="#010101" d="M 841.5,35.5 C 843.924,35.1924 846.257,35.5258 848.5,36.5C 849.441,38.7721 850.774,40.7721 852.5,42.5C 853.833,40.5 855.167,38.5 856.5,36.5C 858.743,35.5258 861.076,35.1924 863.5,35.5C 863.5,42.1667 863.5,48.8333 863.5,55.5C 861.5,55.5 859.5,55.5 857.5,55.5C 857.665,51.8183 857.499,48.1516 857,44.5C 853.311,51.2624 849.977,50.9291 847,43.5C 846.501,47.4862 846.334,51.4862 846.5,55.5C 844.833,55.5 843.167,55.5 841.5,55.5C 841.5,48.8333 841.5,42.1667 841.5,35.5 Z"/></g>
<g><path style="opacity:0.782" fill="#010101" d="M 875.5,35.5 C 880.5,35.5 885.5,35.5 890.5,35.5C 890.5,36.8333 890.5,38.1667 890.5,39.5C 887.5,39.5 884.5,39.5 881.5,39.5C 881.5,40.8333 881.5,42.1667 881.5,43.5C 884.167,43.5 886.833,43.5 889.5,43.5C 889.5,44.8333 889.5,46.1667 889.5,47.5C 886.833,47.5 884.167,47.5 881.5,47.5C 881.5,48.8333 881.5,50.1667 881.5,51.5C 884.5,51.5 887.5,51.5 890.5,51.5C 890.5,52.8333 890.5,54.1667 890.5,55.5C 885.5,55.5 880.5,55.5 875.5,55.5C 875.5,48.8333 875.5,42.1667 875.5,35.5 Z"/></g>
<g><path style="opacity:0.707" fill="#020202" d="M 901.5,35.5 C 908.2,35.17 914.866,35.5033 921.5,36.5C 925.5,44.5 925.5,52.5 921.5,60.5C 919.833,61.8333 918.167,61.8333 916.5,60.5C 920.271,52.9105 920.438,45.2438 917,37.5C 914.196,39.3444 911.03,40.0111 907.5,39.5C 907.5,40.8333 907.5,42.1667 907.5,43.5C 910.167,43.5 912.833,43.5 915.5,43.5C 915.5,44.8333 915.5,46.1667 915.5,47.5C 912.833,47.5 910.167,47.5 907.5,47.5C 907.5,50.1667 907.5,52.8333 907.5,55.5C 905.5,55.5 903.5,55.5 901.5,55.5C 901.5,48.8333 901.5,42.1667 901.5,35.5 Z"/></g>
<g><path style="opacity:0.251" fill="#b01928" d="M 48.5,40.5 C 47.6743,43.4848 46.341,46.1515 44.5,48.5C 44.2945,45.0032 45.6278,42.3365 48.5,40.5 Z"/></g>
<g><path style="opacity:0.656" fill="#030303" d="M 833.5,49.5 C 837.701,49.4258 839.035,51.2591 837.5,55C 835.866,55.4935 834.199,55.6602 832.5,55.5C 832.325,53.3792 832.659,51.3792 833.5,49.5 Z"/></g>
<g><path style="opacity:0.589" fill="#020202" d="M 867.5,49.5 C 871.701,49.4258 873.035,51.2591 871.5,55C 866.001,55.8063 864.668,53.973 867.5,49.5 Z"/></g>
<g><path style="opacity:0.623" fill="#020202" d="M 894.5,49.5 C 898.225,49.5372 899.558,51.2038 898.5,54.5C 892.547,56.2234 891.214,54.5568 894.5,49.5 Z"/></g>
<g><path style="opacity:0.996" fill="#ce1935" d="M 55.5,46.5 C 55.5975,50.6523 53.9308,53.6523 50.5,55.5C 51.9287,52.3037 53.5954,49.3037 55.5,46.5 Z"/></g>
<g><path style="opacity:0.431" fill="#bb1236" d="M 50.5,55.5 C 49.4095,58.1917 47.7428,58.8584 45.5,57.5C 47.1667,56.8333 48.8333,56.1667 50.5,55.5 Z"/></g>
</svg>
