<?xml version="1.0" standalone="no"?>
<!DOCTYPE svg PUBLIC "-//W3C//DTD SVG 20010904//EN"
 "http://www.w3.org/TR/2001/REC-SVG-20010904/DTD/svg10.dtd">
<svg version="1.0" xmlns="http://www.w3.org/2000/svg"
 width="894.000000pt" height="73.000000pt" viewBox="0 0 894.000000 73.000000"
 preserveAspectRatio="xMidYMid meet">

<g transform="translate(0.000000,73.000000) scale(0.100000,-0.100000)"
fill="#000000" stroke="none">
<path d="M40 365 l0 -315 325 0 325 0 0 315 0 315 -325 0 -325 0 0 -315z m450
125 c0 -21 -100 -227 -122 -252 -23 -25 -92 -48 -105 -34 -6 6 43 122 90 215
14 27 36 51 57 62 37 20 80 25 80 9z"/>
<path d="M2750 475 c-21 -25 -1 -31 23 -7 17 18 18 22 5 22 -8 0 -21 -7 -28
-15z"/>
<path d="M800 340 c0 -93 1 -100 20 -100 18 0 20 7 20 67 l0 68 25 -37 c29
-42 47 -41 65 3 20 47 30 34 30 -37 0 -57 2 -65 18 -62 15 3 17 16 17 98 0 89
-1 95 -21 98 -16 2 -28 -8 -49 -43 l-27 -46 -29 45 c-18 30 -36 46 -49 46 -19
0 -20 -6 -20 -100z"/>
<path d="M1083 423 c-3 -10 -19 -52 -35 -93 -15 -41 -28 -78 -28 -82 0 -19 38
-6 48 17 9 19 19 25 42 25 23 0 33 -6 40 -25 6 -15 17 -25 30 -25 11 0 20 1
20 3 0 1 -15 45 -34 97 -27 76 -38 96 -55 98 -13 2 -24 -3 -28 -15z m42 -75
c6 -24 4 -28 -14 -28 -22 0 -25 10 -15 48 8 27 20 19 29 -20z"/>
<path d="M1190 420 c0 -15 7 -20 25 -20 25 0 25 -1 25 -80 0 -73 2 -80 20 -80
18 0 20 7 20 80 0 78 1 80 24 80 23 0 41 22 29 34 -4 3 -37 6 -75 6 -61 0 -68
-2 -68 -20z"/>
<path d="M1360 340 c0 -93 1 -100 20 -100 16 0 20 7 20 35 0 31 3 35 26 35 19
0 28 -8 40 -35 13 -33 36 -45 48 -26 3 4 -3 25 -14 46 -17 33 -17 40 -4 60 11
16 12 29 5 47 -11 28 -36 38 -98 38 l-43 0 0 -100z m100 35 c0 -21 -5 -25 -30
-25 -25 0 -30 4 -30 25 0 21 5 25 30 25 25 0 30 -4 30 -25z"/>
<path d="M1550 340 c0 -91 2 -101 18 -98 15 3 17 16 17 98 0 82 -2 95 -17 98
-16 3 -18 -7 -18 -98z"/>
<path d="M1627 433 c-18 -17 -4 -32 33 -35 l41 -3 -47 -67 c-25 -36 -43 -71
-40 -77 4 -6 37 -11 77 -11 62 0 69 2 69 19 0 16 -8 20 -45 23 l-46 3 46 63
c26 35 44 70 41 78 -4 10 -23 14 -64 14 -32 0 -62 -3 -65 -7z"/>
<path d="M1854 427 c-3 -8 -4 -52 -2 -98 l3 -84 35 -3 c97 -10 155 49 130 131
-9 29 -19 42 -45 53 -44 18 -114 18 -121 1z m114 -39 c16 -16 16 -80 0 -96 -7
-7 -27 -12 -45 -12 l-33 0 0 60 0 60 33 0 c18 0 38 -5 45 -12z"/>
<path d="M2060 340 l0 -100 65 0 c58 0 65 2 65 20 0 17 -7 20 -45 20 -38 0
-45 3 -45 20 0 17 7 20 40 20 33 0 40 3 40 20 0 17 -7 20 -40 20 -33 0 -40 3
-40 20 0 17 7 20 45 20 38 0 45 3 45 20 0 18 -7 20 -65 20 l-65 0 0 -100z"/>
<path d="M2336 432 c-8 -13 -66 -175 -66 -184 0 -4 9 -8 20 -8 13 0 22 9 26
25 5 21 12 25 40 25 28 0 36 -5 44 -25 6 -16 17 -25 31 -25 16 0 19 4 14 18
-4 9 -17 46 -30 82 -13 36 -26 73 -30 83 -7 17 -40 24 -49 9z m39 -84 c6 -24
4 -28 -14 -28 -22 0 -25 10 -15 48 8 27 20 19 29 -20z"/>
<path d="M2474 427 c-3 -8 -4 -51 -2 -98 3 -70 6 -84 21 -87 15 -3 17 5 17 64
l0 68 46 -67 c30 -42 53 -67 65 -67 17 0 19 9 19 101 0 90 -2 100 -17 97 -14
-2 -19 -16 -23 -63 l-5 -60 -43 63 c-41 60 -67 76 -78 49z"/>
<path d="M2702 353 c-18 -49 -32 -94 -32 -101 0 -22 30 -12 40 13 8 20 16 25
43 25 26 0 36 -6 45 -25 12 -26 42 -35 42 -12 -1 6 -15 50 -33 97 -25 66 -37
86 -53 88 -18 3 -25 -9 -52 -85z m72 -10 c6 -20 4 -23 -18 -23 -30 0 -29 -2
-15 40 12 34 19 30 33 -17z"/>
<path d="M2870 341 l0 -101 60 0 c53 0 60 2 60 20 0 17 -7 20 -40 20 l-39 0
-3 77 c-3 65 -6 78 -20 81 -16 3 -18 -7 -18 -97z"/>
<path d="M3020 340 c0 -93 1 -100 20 -100 19 0 20 7 20 100 0 93 -1 100 -20
100 -19 0 -20 -7 -20 -100z"/>
<path d="M3130 428 c-29 -15 -38 -59 -17 -76 8 -7 32 -18 53 -26 21 -7 39 -19
39 -27 0 -17 -53 -25 -68 -10 -6 6 -19 11 -29 11 -16 0 -17 -3 -8 -20 24 -45
119 -50 141 -9 19 37 3 65 -51 87 -51 21 -62 35 -35 46 18 6 45 -2 45 -15 0
-5 9 -9 20 -9 23 0 27 22 7 39 -23 18 -70 22 -97 9z"/>
<path d="M3280 340 c0 -93 1 -100 20 -100 19 0 20 7 20 100 0 93 -1 100 -20
100 -19 0 -20 -7 -20 -100z"/>
<path d="M3392 430 c-53 -22 -36 -80 30 -102 53 -18 65 -48 19 -48 -16 0 -33
5 -36 10 -11 18 -47 12 -43 -7 5 -26 54 -46 93 -39 41 8 57 27 53 62 -3 29
-10 34 -73 59 -38 15 -39 17 -21 31 17 12 23 12 44 -2 27 -17 54 -12 46 9 -6
17 -47 37 -72 36 -9 0 -27 -4 -40 -9z"/>
<path d="M3610 339 c0 -89 2 -100 17 -97 14 2 16 14 14 66 -2 60 11 84 24 43
3 -10 14 -26 25 -36 19 -17 20 -16 42 21 l23 39 5 -65 c4 -51 9 -66 23 -68 15
-3 17 7 17 97 0 94 -1 101 -20 101 -12 0 -29 -16 -46 -45 -14 -25 -27 -45 -29
-45 -2 0 -15 20 -29 45 -17 29 -34 45 -46 45 -19 0 -20 -7 -20 -101z"/>
<path d="M3894 431 c-56 -24 -72 -109 -30 -158 32 -37 103 -40 138 -5 31 31
33 112 2 142 -23 24 -79 34 -110 21z m86 -63 c13 -25 13 -31 0 -55 -19 -35
-67 -44 -87 -17 -16 22 -17 58 -2 85 16 30 69 22 89 -13z"/>
<path d="M4069 436 c-2 -2 -3 -47 -1 -100 l3 -96 38 0 c79 0 131 39 131 100 0
37 -28 77 -61 89 -31 11 -101 15 -110 7z m119 -68 c21 -44 -2 -82 -51 -86
l-37 -3 0 61 0 61 37 -3 c30 -2 41 -9 51 -30z"/>
<path d="M4282 348 c-18 -51 -32 -96 -32 -100 0 -5 9 -8 19 -8 12 0 21 9 25
25 5 21 12 25 41 25 29 0 37 -5 45 -25 9 -24 40 -35 40 -15 0 6 -14 51 -31
100 -27 76 -35 90 -53 90 -18 0 -27 -14 -54 -92z m72 -5 c6 -20 4 -23 -18 -23
-30 0 -29 -2 -15 40 12 34 19 30 33 -17z"/>
<path d="M4450 340 l0 -100 60 0 c53 0 60 2 60 20 0 17 -7 20 -40 20 l-40 0 0
80 c0 73 -2 80 -20 80 -19 0 -20 -7 -20 -100z"/>
<path d="M4660 340 l0 -102 62 4 c75 6 108 35 108 98 0 63 -33 92 -108 98
l-62 4 0 -102z m114 44 c9 -8 16 -28 16 -44 0 -37 -24 -60 -61 -60 -29 0 -29
0 -29 60 0 60 0 60 29 60 16 0 37 -7 45 -16z"/>
<path d="M4870 340 l0 -100 65 0 c58 0 65 2 65 20 0 17 -7 20 -45 20 -38 0
-45 3 -45 20 0 17 7 20 40 20 33 0 40 3 40 20 0 17 -7 20 -40 20 -33 0 -40 3
-40 20 0 17 7 20 45 20 38 0 45 3 45 20 0 18 -7 20 -65 20 l-65 0 0 -100z"/>
<path d="M5100 340 c0 -93 1 -100 20 -100 17 0 20 7 20 40 l0 40 41 0 c33 0
40 3 37 18 -2 12 -14 18 -41 20 -28 2 -37 8 -37 22 0 15 9 19 43 22 29 2 42 8
42 18 0 11 -15 16 -62 18 l-63 3 0 -101z"/>
<path d="M5296 431 c-9 -14 -66 -172 -66 -182 0 -21 38 -8 44 16 5 21 12 25
41 25 29 0 37 -5 45 -25 10 -26 40 -35 40 -11 0 8 -14 53 -31 100 -24 65 -36
86 -50 86 -10 0 -20 -4 -23 -9z m38 -88 c6 -20 4 -23 -17 -23 -24 0 -25 1 -14
35 11 36 17 34 31 -12z"/>
<path d="M5430 340 l0 -100 60 0 c53 0 60 2 60 20 0 17 -7 20 -40 20 l-40 0 0
80 c0 73 -2 80 -20 80 -19 0 -20 -7 -20 -100z"/>
<path d="M5584 427 c-3 -8 -4 -52 -2 -98 l3 -84 60 0 c47 0 60 3 60 15 0 10
-13 16 -42 18 l-43 3 0 80 c0 64 -3 79 -15 79 -9 0 -18 -6 -21 -13z"/>
<path d="M5780 433 c-39 -14 -60 -46 -60 -93 0 -52 24 -83 73 -95 55 -14 117
36 117 94 0 67 -69 116 -130 94z m68 -45 c7 -7 12 -28 12 -48 0 -20 -5 -41
-12 -48 -19 -19 -66 -15 -78 7 -24 47 -4 101 38 101 16 0 33 -5 40 -12z"/>
<path d="M5963 429 c-49 -25 -33 -68 37 -103 24 -11 43 -25 42 -31 -2 -14 -52
-19 -65 -6 -12 12 -47 15 -47 4 1 -24 45 -53 79 -53 31 0 70 21 77 42 9 30
-22 66 -66 78 -40 11 -53 33 -26 43 8 3 22 -1 33 -8 23 -18 53 -19 53 -1 0 33
-75 56 -117 35z"/>
<path d="M6160 433 c0 -3 14 -30 30 -60 20 -34 30 -67 30 -93 0 -33 3 -40 20
-40 16 0 20 7 20 36 0 23 13 60 36 101 36 64 36 65 13 61 -15 -2 -31 -17 -45
-42 l-22 -39 -21 42 c-14 27 -28 41 -41 41 -11 0 -20 -3 -20 -7z"/>
<path d="M6414 427 c-3 -8 -4 -52 -2 -98 l3 -84 63 -3 c57 -3 62 -1 62 18 0
17 -6 20 -45 20 -38 0 -45 3 -45 20 0 17 7 20 38 20 43 0 53 6 45 26 -3 9 -20
14 -44 14 -32 0 -39 3 -39 20 0 17 7 20 45 20 38 0 45 3 45 20 0 18 -7 20 -60
20 -41 0 -62 -4 -66 -13z"/>
<path d="M6580 340 c0 -93 1 -100 20 -100 17 0 20 7 20 40 l0 40 41 0 c33 0
40 3 37 18 -2 12 -14 18 -41 20 -28 2 -37 8 -37 22 0 15 9 19 42 22 31 2 44 8
46 21 3 15 -5 17 -62 17 l-66 0 0 -100z"/>
<path d="M6740 340 l0 -100 65 0 c58 0 65 2 65 20 0 17 -7 20 -45 20 -38 0
-45 3 -45 20 0 17 7 20 40 20 33 0 40 3 40 20 0 17 -7 20 -40 20 -33 0 -40 3
-40 20 0 17 7 20 45 20 38 0 45 3 45 20 0 18 -7 20 -65 20 l-65 0 0 -100z"/>
<path d="M6960 433 c-8 -3 -25 -15 -37 -26 -33 -29 -32 -105 0 -135 32 -30 78
-37 114 -18 40 20 51 56 18 56 -13 0 -25 -7 -29 -15 -7 -18 -57 -20 -74 -3 -7
7 -12 28 -12 48 0 20 5 41 12 48 17 17 63 15 78 -3 12 -14 50 -21 50 -9 0 39
-73 74 -120 57z"/>
<path d="M7090 420 c0 -15 7 -20 25 -20 25 0 25 -1 25 -80 0 -73 2 -80 20 -80
18 0 20 7 20 80 0 79 0 80 25 80 18 0 25 5 25 20 0 18 -7 20 -70 20 -63 0 -70
-2 -70 -20z"/>
<path d="M7290 428 c-53 -28 -66 -108 -26 -155 20 -23 32 -28 71 -28 60 0 95
35 95 95 0 72 -77 121 -140 88z m94 -60 c16 -44 -3 -82 -41 -86 -32 -3 -63 25
-63 58 0 9 7 26 16 38 23 34 75 27 88 -10z"/>
<path d="M7490 427 c-29 -14 -38 -58 -17 -75 8 -7 32 -18 53 -26 48 -16 51
-40 7 -44 -19 -2 -33 1 -33 7 0 6 -9 11 -21 11 -28 0 -21 -31 11 -48 28 -14
84 -10 106 9 8 6 14 25 14 41 0 26 -6 32 -55 53 -30 14 -55 29 -55 34 0 17 33
21 56 6 13 -8 28 -15 34 -15 18 0 11 28 -12 44 -27 19 -54 20 -88 3z"/>
<path d="M7715 410 c-25 -49 -29 -112 -10 -169 10 -32 22 -51 32 -51 12 0 13
6 7 28 -11 34 -11 147 0 190 11 42 -8 43 -29 2z"/>
<path d="M7835 428 c-2 -7 -18 -50 -35 -96 -16 -46 -30 -85 -30 -88 0 -2 8 -4
18 -4 11 0 24 11 30 25 9 19 19 25 42 25 23 0 33 -6 42 -25 14 -30 53 -36 43
-6 -37 119 -64 176 -84 179 -12 2 -23 -3 -26 -10z m39 -70 c9 -35 8 -38 -14
-38 -20 0 -25 15 -14 44 9 23 21 20 28 -6z"/>
<path d="M8070 339 c0 -90 2 -100 18 -97 13 2 18 17 22 68 4 47 7 59 13 44 4
-12 16 -29 27 -39 18 -16 20 -15 42 19 13 20 26 36 30 36 3 0 6 -28 5 -62 -2
-53 1 -63 16 -66 15 -3 17 7 17 97 0 94 -1 101 -20 101 -12 0 -29 -16 -46 -46
l-27 -46 -28 46 c-19 30 -36 46 -49 46 -19 0 -20 -7 -20 -101z"/>
<path d="M8400 340 l0 -100 65 0 c58 0 65 2 65 20 0 17 -7 20 -44 20 -35 0
-45 4 -49 20 -5 18 0 20 40 20 37 0 44 3 41 18 -2 12 -14 18 -41 20 -28 2 -37
8 -37 22 0 15 9 19 42 22 31 2 44 8 46 21 3 15 -5 17 -62 17 l-66 0 0 -100z"/>
<path d="M8654 427 c-3 -8 -4 -51 -2 -98 3 -70 6 -84 21 -87 14 -3 17 4 17 37
l0 41 40 0 c33 0 40 3 40 20 0 17 -7 20 -40 20 -33 0 -40 3 -40 20 0 17 7 20
45 20 38 0 45 3 45 20 0 18 -7 20 -60 20 -41 0 -62 -4 -66 -13z"/>
<path d="M8805 423 c24 -60 28 -119 12 -173 -17 -58 -16 -66 7 -57 18 7 36 68
36 124 0 53 -27 123 -47 123 -10 0 -13 -6 -8 -17z"/>
<path d="M7977 276 c-7 -17 18 -40 33 -31 5 3 10 15 10 26 0 23 -35 27 -43 5z"/>
<path d="M8307 276 c-8 -20 20 -43 35 -28 14 14 3 42 -16 42 -7 0 -16 -6 -19
-14z"/>
<path d="M8564 275 c-4 -10 -1 -21 7 -26 20 -12 34 -5 34 17 0 24 -33 31 -41
9z"/>
</g>
</svg>
